<mxfile host="Electron" modified="2024-03-04T07:36:58.362Z" agent="Mozilla/5.0 (Windows NT 10.0; Win64; x64) AppleWebKit/537.36 (KHTML, like Gecko) draw.io/22.0.3 Chrome/114.0.5735.289 Electron/25.8.4 Safari/537.36" etag="fWLDZ1eFoxRlc4FBLJM2" version="22.0.3" type="device">
  <diagram name="Page-1" id="tN_bAhphDbs55y3_fMf6">
    <mxGraphModel dx="1020" dy="543" grid="1" gridSize="10" guides="1" tooltips="1" connect="1" arrows="1" fold="1" page="1" pageScale="1" pageWidth="827" pageHeight="1169" math="0" shadow="0">
      <root>
        <mxCell id="0" />
        <mxCell id="1" parent="0" />
        <mxCell id="YxodE-qVUvW_WgYaNfbS-24" style="edgeStyle=orthogonalEdgeStyle;rounded=0;orthogonalLoop=1;jettySize=auto;html=1;entryX=1;entryY=0.5;entryDx=0;entryDy=0;" edge="1" parent="1" source="YxodE-qVUvW_WgYaNfbS-21" target="YxodE-qVUvW_WgYaNfbS-23">
          <mxGeometry relative="1" as="geometry" />
        </mxCell>
        <mxCell id="YxodE-qVUvW_WgYaNfbS-21" value="" style="rounded=1;whiteSpace=wrap;html=1;" vertex="1" parent="1">
          <mxGeometry x="480" y="270" width="156" height="140" as="geometry" />
        </mxCell>
        <mxCell id="YxodE-qVUvW_WgYaNfbS-12" style="edgeStyle=orthogonalEdgeStyle;rounded=0;orthogonalLoop=1;jettySize=auto;html=1;exitX=1;exitY=0.5;exitDx=0;exitDy=0;entryX=0;entryY=0.5;entryDx=0;entryDy=0;" edge="1" parent="1" source="YxodE-qVUvW_WgYaNfbS-3" target="YxodE-qVUvW_WgYaNfbS-6">
          <mxGeometry relative="1" as="geometry" />
        </mxCell>
        <mxCell id="YxodE-qVUvW_WgYaNfbS-3" value="" style="rounded=1;whiteSpace=wrap;html=1;" vertex="1" parent="1">
          <mxGeometry x="280" y="100" width="156" height="140" as="geometry" />
        </mxCell>
        <mxCell id="YxodE-qVUvW_WgYaNfbS-1" value="关键词拓展" style="rounded=1;whiteSpace=wrap;html=1;" vertex="1" parent="1">
          <mxGeometry x="320" y="120" width="100" height="40" as="geometry" />
        </mxCell>
        <mxCell id="YxodE-qVUvW_WgYaNfbS-2" value="关键词过滤" style="rounded=1;whiteSpace=wrap;html=1;" vertex="1" parent="1">
          <mxGeometry x="320" y="180" width="100" height="40" as="geometry" />
        </mxCell>
        <mxCell id="YxodE-qVUvW_WgYaNfbS-4" value="关键词分析模块" style="text;html=1;strokeColor=none;fillColor=none;align=center;verticalAlign=middle;whiteSpace=wrap;rounded=0;rotation=-90;" vertex="1" parent="1">
          <mxGeometry x="240" y="160" width="110" height="20" as="geometry" />
        </mxCell>
        <mxCell id="YxodE-qVUvW_WgYaNfbS-22" style="edgeStyle=orthogonalEdgeStyle;rounded=0;orthogonalLoop=1;jettySize=auto;html=1;entryX=0.5;entryY=0;entryDx=0;entryDy=0;" edge="1" parent="1" source="YxodE-qVUvW_WgYaNfbS-6" target="YxodE-qVUvW_WgYaNfbS-21">
          <mxGeometry relative="1" as="geometry" />
        </mxCell>
        <mxCell id="YxodE-qVUvW_WgYaNfbS-6" value="" style="rounded=1;whiteSpace=wrap;html=1;" vertex="1" parent="1">
          <mxGeometry x="480" y="100" width="156" height="140" as="geometry" />
        </mxCell>
        <mxCell id="YxodE-qVUvW_WgYaNfbS-7" value="查询与处理模块" style="text;html=1;strokeColor=none;fillColor=none;align=center;verticalAlign=middle;whiteSpace=wrap;rounded=0;rotation=-90;" vertex="1" parent="1">
          <mxGeometry x="450" y="160" width="110" height="20" as="geometry" />
        </mxCell>
        <mxCell id="YxodE-qVUvW_WgYaNfbS-8" value="搜索" style="rounded=1;whiteSpace=wrap;html=1;" vertex="1" parent="1">
          <mxGeometry x="520" y="120" width="50" height="40" as="geometry" />
        </mxCell>
        <mxCell id="YxodE-qVUvW_WgYaNfbS-9" value="去重" style="rounded=1;whiteSpace=wrap;html=1;" vertex="1" parent="1">
          <mxGeometry x="580" y="120" width="50" height="40" as="geometry" />
        </mxCell>
        <mxCell id="YxodE-qVUvW_WgYaNfbS-10" value="排序" style="rounded=1;whiteSpace=wrap;html=1;" vertex="1" parent="1">
          <mxGeometry x="580" y="180" width="50" height="40" as="geometry" />
        </mxCell>
        <mxCell id="YxodE-qVUvW_WgYaNfbS-11" value="逆向" style="rounded=1;whiteSpace=wrap;html=1;" vertex="1" parent="1">
          <mxGeometry x="520" y="180" width="50" height="40" as="geometry" />
        </mxCell>
        <mxCell id="YxodE-qVUvW_WgYaNfbS-20" value="可视化模块" style="text;html=1;strokeColor=none;fillColor=none;align=center;verticalAlign=middle;whiteSpace=wrap;rounded=0;rotation=-90;" vertex="1" parent="1">
          <mxGeometry x="450" y="330" width="110" height="20" as="geometry" />
        </mxCell>
        <mxCell id="YxodE-qVUvW_WgYaNfbS-23" value="" style="rounded=1;whiteSpace=wrap;html=1;" vertex="1" parent="1">
          <mxGeometry x="280" y="270" width="156" height="140" as="geometry" />
        </mxCell>
        <mxCell id="YxodE-qVUvW_WgYaNfbS-25" value="用户自定义数据处理模块" style="text;html=1;strokeColor=none;fillColor=none;align=center;verticalAlign=middle;whiteSpace=wrap;rounded=0;rotation=-90;" vertex="1" parent="1">
          <mxGeometry x="250" y="330" width="110" height="20" as="geometry" />
        </mxCell>
        <mxCell id="YxodE-qVUvW_WgYaNfbS-26" value="数据重清洗" style="rounded=1;whiteSpace=wrap;html=1;" vertex="1" parent="1">
          <mxGeometry x="330" y="290" width="90" height="40" as="geometry" />
        </mxCell>
        <mxCell id="YxodE-qVUvW_WgYaNfbS-29" value="&lt;b&gt;...&lt;/b&gt;" style="text;html=1;strokeColor=none;fillColor=none;align=center;verticalAlign=middle;whiteSpace=wrap;rounded=0;" vertex="1" parent="1">
          <mxGeometry x="340" y="340" width="60" height="30" as="geometry" />
        </mxCell>
        <mxCell id="YxodE-qVUvW_WgYaNfbS-30" value="搜索结果" style="rounded=1;whiteSpace=wrap;html=1;" vertex="1" parent="1">
          <mxGeometry x="530" y="290" width="80" height="40" as="geometry" />
        </mxCell>
        <mxCell id="YxodE-qVUvW_WgYaNfbS-31" value="逆向过程" style="rounded=1;whiteSpace=wrap;html=1;" vertex="1" parent="1">
          <mxGeometry x="530" y="350" width="80" height="40" as="geometry" />
        </mxCell>
      </root>
    </mxGraphModel>
  </diagram>
</mxfile>
